# xmcd
#
# Track frame offsets: 
#        150
#        15493
#        29512
#        46590
#        63593
#        78095
#        100393
#        116099
#        137717
#        152093
#
# Disc length: 2260 seconds
#
# Revision: 0
# Processed by: cddbd v1.5.2PL0 Copyright (c) Steve Scherf et al.
# Submitted via: ExactAudioCopy v0.99pb5
#
DISCID=7808d20a
DTITLE=Craig Gerber - Time Has Come
DYEAR=2010
DGENRE=Country
TTITLE0=Time Has Come
TTITLE1=All Right
TTITLE2=Leave The Light On
TTITLE3=Sea Of Sorrow
TTITLE4=Watch Out
TTITLE5=Something Good
TTITLE6=Adeline
TTITLE7=Hard Winter
TTITLE8=Addiction
TTITLE9=Call It What You Want
EXTD=
EXTT0=
EXTT1=
EXTT2=
EXTT3=
EXTT4=
EXTT5=
EXTT6=
EXTT7=
EXTT8=
EXTT9=
PLAYORDER=
